#!OML:ASF E:\emotionWalksFemale\Project 1\Capture day 1\Session 1\Female1.ASF
:FULLY-SPECIFIED
:DEGREES
1367
root 9.72581 15.1743 -26.1459 175.516 -5.41746 -176.54
lowerback 7.67219 -0.500641 1.47793
upperback -5.53322 -0.667722 -0.260071
thorax -10.2435 -0.501166 -0.988158
lowerneck -7.77659 -2.43788 -5.12203
upperneck 15.7775 -4.32815 6.99882
head 6.31542 -2.10456 2.71388
rclavicle 1.30204e-014 5.96354e-015
rhumerus -41.8184 4.3635 -83.4503
rradius 42.0799
rwrist 11.4961
rhand -8.59577 -57.8894
rfingers 7.12502
rthumb 17.3355 -447.136
lclavicle 1.30204e-014 5.96354e-015
lhumerus -47.5055 -1.20839 81.2306
lradius 43.0488
lwrist -8.31853
lhand -7.62816 -33.0898
lfingers 7.12502
lthumb 18.2666 -3.92748
rfemur -2.64485 9.41117 36.1152
rtibia 27.9573
rfoot -16.6026 -24.9186
rtoes 15.3385
lfemur -24.4951 0.640689 -16.3504
ltibia 62.5686
lfoot -16.7925 2.92765
ltoes -26.1186
1368
root 9.72623 15.1675 -26.1935 175.606 -5.37943 -176.51
lowerback 7.70365 -0.507743 1.53673
upperback -5.62651 -0.673503 -0.231606
thorax -10.3668 -0.511225 -0.988417
lowerneck -7.47341 -2.45681 -5.16998
upperneck 15.6129 -4.32968 6.89115
head 6.20929 -2.12259 2.69017
rclavicle -2.48481e-015 4.37326e-015
rhumerus -42.094 4.32765 -83.4763
rradius 42.4392
rwrist 11.3643
rhand -8.45371 -57.9297
rfingers 7.12502
rthumb 17.4722 -447.165
lclavicle -2.48481e-015 4.37326e-015
lhumerus -47.7596 -1.16143 81.2195
lradius 42.9401
lwrist -8.32388
lhand -7.62479 -33.1155
lfingers 7.12502
lthumb 18.2698 -3.95353
rfemur -2.52321 9.27772 36.2011
rtibia 27.9352
rfoot -16.6781 -24.8488
rtoes 15.5996
lfemur -25.073 0.26203 -16.3899
ltibia 61.7745
lfoot -16.8858 3.65636
ltoes -28.0088
1369
root 9.72582 15.1677 -26.2543 175.56 -5.2183 -176.435
lowerback 7.3556 -0.587465 1.54986
upperback -5.38189 -0.768494 -0.181117
thorax -9.88949 -0.545965 -0.932254
lowerneck -7.59881 -2.33484 -4.77538
upperneck 15.3525 -4.12392 6.63323
head 6.12368 -2.00662 2.5573
rclavicle 1.02374e-014 -2.78299e-015
rhumerus -41.6954 4.48988 -83.7066
rradius 42.4565
rwrist 11.2724
rhand -8.25887 -58.1406
rfingers 7.12502
rthumb 17.6597 -447.359
lclavicle 1.02374e-014 -2.78299e-015
lhumerus -47.5167 -0.753402 80.9564
lradius 42.7049
lwrist -8.39778
lhand -7.43144 -32.9328
lfingers 7.12502
lthumb 18.4558 -3.78827
rfemur -2.1997 9.25836 36.3387
rtibia 27.9214
rfoot -16.6472 -24.7449
rtoes 14.6335
lfemur -25.3926 -0.0168139 -16.37
ltibia 60.9342
lfoot -17.2345 4.18057
ltoes -28.1284
1370
root 9.72498 15.1697 -26.3145 175.487 -5.06905 -176.482
lowerback 7.4834 -0.520971 1.62609
upperback -5.36541 -0.665258 -0.188936
thorax -9.94569 -0.500481 -0.99903
lowerneck -7.64248 -2.3341 -5.00466
upperneck 15.3479 -4.11163 6.78911
head 6.13643 -2.00018 2.64597
rclavicle 6.95746e-015 -1.19271e-015
rhumerus -41.6337 4.38486 -83.6842
rradius 42.282
rwrist 11.2022
rhand -8.05662 -58.3696
rfingers 7.12502
rthumb 17.8544 -447.57
lclavicle 6.95746e-015 -1.19271e-015
lhumerus -47.5538 -0.615118 80.9227
lradius 42.4226
lwrist -8.52544
lhand -7.37599 -32.8811
lfingers 7.12502
lthumb 18.5092 -3.74164
rfemur -1.76537 9.27895 36.3663
rtibia 27.8118
rfoot -16.2707 -24.7443
rtoes 12.7565
lfemur -25.6033 -0.324886 -16.4806
ltibia 60.0432
lfoot -17.6072 4.65827
ltoes -27.377
1371
root 9.72394 15.1715 -26.3647 175.506 -4.96787 -176.544
lowerback 7.64371 -0.538201 1.63305
upperback -5.25799 -0.676196 -0.198395
thorax -9.9232 -0.501525 -1.01128
lowerneck -8.50385 -2.40112 -4.9194
upperneck 15.8832 -4.16356 6.53499
head 6.45334 -2.01549 2.53881
rclavicle -7.05686e-015 9.54166e-015
rhumerus -41.3062 4.4042 -83.7651
rradius 42.2034
rwrist 11.0384
rhand -7.91276 -58.5377
rfingers 7.12502
rthumb 17.9928 -447.725
lclavicle -7.05686e-015 9.54166e-015
lhumerus -47.3757 -0.259434 80.7508
lradius 42.2813
lwrist -8.70201
lhand -7.37644 -32.8589
lfingers 7.12502
lthumb 18.5087 -3.71948
rfemur -1.44336 9.32304 36.3669
rtibia 27.5976
rfoot -16.0131 -24.7769
rtoes 11.978
lfemur -25.9824 -0.637461 -16.6021
ltibia 59.132
lfoot -17.7175 5.08773
ltoes -27.666
1372
root 9.72334 15.1768 -26.4146 175.585 -4.81135 -176.504
lowerback 7.83945 -0.513899 1.75295
upperback -5.56162 -0.645255 -0.215833
thorax -10.3783 -0.509528 -1.09747
lowerneck -8.02186 -2.44021 -5.06921
upperneck 15.8284 -4.29926 6.8605
head 6.36898 -2.08855 2.66078
rclavicle -1.88845e-015 7.15625e-015
rhumerus -41.951 4.4266 -83.9326
rradius 42.4154
rwrist 10.8898
rhand -7.79707 -58.7211
rfingers 7.12502
rthumb 18.1041 -447.899
lclavicle -1.88845e-015 7.15625e-015
lhumerus -47.9714 -0.198691 80.6024
lradius 42.0758
lwrist -8.97448
lhand -7.47658 -32.9724
lfingers 7.12502
lthumb 18.4124 -3.8238
rfemur -1.21885 9.3944 36.4507
rtibia 27.3777
rfoot -15.9206 -24.7279
rtoes 11.8524
lfemur -26.4401 -0.858407 -16.5981
ltibia 58.2072
lfoot -17.8058 5.39788
ltoes -27.559
1373
root 9.72275 15.1811 -26.471 175.659 -4.63922 -176.531
lowerback 7.6315 -0.495776 1.76047
upperback -5.53487 -0.627 -0.234942
thorax -10.2236 -0.501278 -1.12693
lowerneck -7.74672 -2.31384 -4.87016
upperneck 15.5952 -4.12496 6.74429
head 6.22979 -2.00626 2.60713
rclavicle 1.88845e-015 -9.54166e-015
rhumerus -41.8736 4.39447 -84.0248
rradius 42.3638
rwrist 11.0552
rhand -7.43951 -58.7192
rfingers 7.12502
rthumb 18.4481 -447.864
lclavicle 1.88845e-015 -9.54166e-015
lhumerus -47.9812 -0.113549 80.4528
lradius 41.6845
lwrist -9.1702
lhand -7.68283 -33.2692
lfingers 7.12502
lthumb 18.214 -4.10197
rfemur -0.963075 9.41814 36.456
rtibia 27.1631
rfoot -15.802 -24.632
rtoes 11.5777
lfemur -26.7733 -1.09281 -16.6666
ltibia 57.2623
lfoot -18.0514 5.65611
ltoes -26.9475
1374
root 9.72022 15.1811 -26.5271 175.721 -4.56101 -176.675
lowerback 7.45609 -0.501273 1.71918
upperback -5.49226 -0.650146 -0.320349
thorax -10.0727 -0.511506 -1.193
lowerneck -7.35446 -2.19559 -4.81409
upperneck 15.1553 -3.96498 6.85555
head 6.01389 -1.92394 2.64911
rclavicle -4.27387e-015 3.97569e-016
rhumerus -41.7636 4.2993 -84.1121
rradius 42.2213
rwrist 11.4745
rhand -6.85714 -58.6846
rfingers 7.12502
rthumb 19.0082 -447.776
lclavicle -4.27387e-015 3.97569e-016
lhumerus -48.0055 0.00364593 80.2407
lradius 41.4009
lwrist -9.30192
lhand -7.56158 -33.301
lfingers 7.12502
lthumb 18.3306 -4.14471
rfemur -0.699418 9.42808 36.3172
rtibia 26.9488
rfoot -15.7956 -24.5889
rtoes 11.0731
lfemur -27.0417 -1.43268 -16.881
ltibia 56.3038
lfoot -18.2031 5.85884
ltoes -26.7809
1375
root 9.71805 15.1792 -26.5758 175.736 -4.50878 -176.757
lowerback 7.58606 -0.538318 1.63931
upperback -5.48548 -0.703469 -0.301276
thorax -10.1433 -0.530347 -1.11819
lowerneck -8.31864 -2.50699 -4.76327
upperneck 15.8713 -4.36123 6.55025
head 6.42636 -2.11239 2.50201
rclavicle -1.50082e-014 7.15625e-015
rhumerus -41.7654 4.44586 -84.2169
rradius 42.3077
rwrist 11.5276
rhand -6.79082 -58.844
rfingers 7.12502
rthumb 19.072 -447.929
lclavicle -1.50082e-014 7.15625e-015
lhumerus -48.0533 0.371235 80.0784
lradius 41.1963
lwrist -9.54366
lhand -7.12225 -33.0604
lfingers 7.12502
lthumb 18.7532 -3.94437
rfemur -0.475529 9.49956 36.245
rtibia 26.7514
rfoot -15.8624 -24.5803
rtoes 10.7538
lfemur -27.3047 -1.76155 -17.0175
ltibia 55.3635
lfoot -18.0493 6.06895
ltoes -27.3196
1376
root 9.71915 15.1772 -26.6191 175.787 -4.34808 -176.654
lowerback 7.78384 -0.53832 1.65332
upperback -5.55669 -0.690933 -0.194027
thorax -10.3391 -0.523708 -1.01085
lowerneck -7.7407 -2.25278 -4.94852
upperneck 15.3996 -4.01729 6.82054
head 6.16327 -1.94887 2.65322
rclavicle -3.8763e-015 3.97569e-015
rhumerus -41.9002 4.64212 -84.3304
rradius 42.4634
rwrist 11.3787
rhand -7.04706 -58.9583
rfingers 7.12502
rthumb 18.8256 -448.067
lclavicle -3.8763e-015 3.97569e-015
lhumerus -48.2329 0.643665 80.0008
lradius 41.0421
lwrist -9.731
lhand -6.9596 -32.9409
lfingers 7.12502
lthumb 18.9097 -3.8401
rfemur -0.324762 9.59169 36.3894
rtibia 26.5394
rfoot -15.826 -24.4441
rtoes 10.758
lfemur -27.6831 -1.91817 -16.9171
ltibia 54.4493
lfoot -17.7449 6.33792
ltoes -27.7894
1377
root 9.71949 15.1783 -26.6659 175.831 -4.14583 -176.474
lowerback 7.53159 -0.451634 1.88682
upperback -5.37216 -0.535923 -0.133947
thorax -9.98063 -0.454522 -1.10707
lowerneck -7.62644 -2.30116 -5.09777
upperneck 14.9617 -4.02928 6.92946
head 6.01159 -1.94823 2.71257
rclavicle 2.68359e-015 2.38542e-015
rhumerus -41.6091 4.47251 -84.2568
rradius 42.4199
rwrist 11.475
rhand -6.86569 -59.03
rfingers 7.12502
rthumb 19 -448.122
lclavicle 2.68359e-015 2.38542e-015
lhumerus -47.9067 0.689244 80.0293
lradius 40.7527
lwrist -9.97342
lhand -6.96652 -32.9579
lfingers 7.12502
lthumb 18.903 -3.8564
rfemur -0.113246 9.62339 36.6245
rtibia 26.3047
rfoot -15.6289 -24.1914
rtoes 11.49
lfemur -28.0268 -1.96892 -16.7441
ltibia 53.5366
lfoot -17.5145 6.54493
ltoes -28.1518
